<?xml version="1.0" encoding="utf-8"?>
<!-- Generator: Adobe Illustrator 18.1.1, SVG Export Plug-In . SVG Version: 6.00 Build 0)  -->
<svg version="1.1" baseProfile="basic" id="Ebene_1"
	 xmlns="http://www.w3.org/2000/svg" xmlns:xlink="http://www.w3.org/1999/xlink" x="0px" y="0px" viewBox="0 0 236.7 64.4"
	 xml:space="preserve">
<g>
	<g>
		<path fill="#FFFFFF" d="M88.5,46.6L94,60.7h-1.4l-1.7-4.4h-6.4l-1.7,4.4h-1.4L87,46.6H88.5z M90.4,55.2L87.6,48l-2.8,7.2H90.4z"/>
		<path fill="#FFFFFF" d="M96.6,50.5v1.8h0c0.2-0.6,0.7-1.1,1.3-1.5c0.6-0.4,1.3-0.6,2-0.6c0.7,0,1.3,0.1,1.8,0.3
			c0.5,0.2,0.9,0.4,1.2,0.8c0.3,0.3,0.5,0.7,0.6,1.2c0.1,0.5,0.2,1,0.2,1.6v6.5h-1.2v-6.3c0-0.4,0-0.8-0.1-1.2
			c-0.1-0.4-0.2-0.7-0.4-1c-0.2-0.3-0.5-0.5-0.8-0.7c-0.3-0.2-0.8-0.2-1.3-0.2c-0.5,0-0.9,0.1-1.3,0.3c-0.4,0.2-0.7,0.4-1,0.7
			c-0.3,0.3-0.5,0.7-0.6,1.1c-0.2,0.4-0.2,0.9-0.2,1.4v5.9h-1.2V50.5H96.6z"/>
		<path fill="#FFFFFF" d="M113.9,46.6v14.1h-1.3V46.6H113.9z"/>
		<path fill="#FFFFFF" d="M123.2,46.6c0.6,0,1.2,0.1,1.7,0.2c0.5,0.1,1,0.3,1.4,0.6c0.4,0.3,0.7,0.6,1,1.1c0.2,0.4,0.4,1,0.4,1.6
			c0,0.4-0.1,0.7-0.2,1.1c-0.1,0.3-0.3,0.7-0.5,0.9c-0.2,0.3-0.5,0.5-0.8,0.7c-0.3,0.2-0.6,0.3-1,0.4v0c0.9,0.1,1.6,0.5,2.2,1.1
			c0.5,0.6,0.8,1.4,0.8,2.3c0,0.2,0,0.5-0.1,0.8c0,0.3-0.1,0.6-0.2,0.9c-0.1,0.3-0.3,0.6-0.5,0.9c-0.2,0.3-0.5,0.5-0.9,0.8
			c-0.4,0.2-0.8,0.4-1.4,0.5c-0.5,0.1-1.2,0.2-2,0.2h-6V46.6H123.2z M123.2,52.8c0.5,0,1-0.1,1.4-0.2c0.4-0.1,0.7-0.3,1-0.5
			c0.3-0.2,0.5-0.5,0.6-0.8c0.1-0.3,0.2-0.6,0.2-0.9c0-1.8-1.1-2.6-3.2-2.6h-4.6v5H123.2z M123.2,59.5c0.5,0,1,0,1.4-0.1
			c0.4-0.1,0.8-0.2,1.2-0.5c0.3-0.2,0.6-0.5,0.8-0.9c0.2-0.4,0.3-0.8,0.3-1.4c0-0.9-0.3-1.6-1-2c-0.6-0.5-1.5-0.7-2.7-0.7h-4.6v5.6
			H123.2z"/>
		<path fill="#FFFFFF" d="M132.7,46.6l4.7,12.3l4.8-12.3h2v14.1h-1.3V48.5h0L138,60.7h-1.3l-4.6-12.2h0v12.2h-1.3V46.6H132.7z"/>
		<path fill="#FFFFFF" d="M163,49.4c-0.3-0.4-0.6-0.8-1-1.1c-0.4-0.3-0.8-0.5-1.3-0.7c-0.5-0.1-1-0.2-1.5-0.2
			c-0.9,0-1.7,0.2-2.4,0.5c-0.7,0.4-1.2,0.8-1.6,1.4c-0.4,0.6-0.7,1.2-0.9,2c-0.2,0.7-0.3,1.5-0.3,2.3c0,0.8,0.1,1.5,0.3,2.3
			c0.2,0.7,0.5,1.4,0.9,2c0.4,0.6,1,1.1,1.6,1.4c0.7,0.3,1.5,0.5,2.4,0.5c0.7,0,1.3-0.1,1.8-0.4c0.5-0.2,1-0.6,1.4-1
			c0.4-0.4,0.7-0.9,0.9-1.4c0.2-0.5,0.4-1.1,0.4-1.8h1.3c-0.1,0.9-0.3,1.7-0.6,2.3c-0.3,0.7-0.7,1.3-1.2,1.8
			c-0.5,0.5-1.1,0.9-1.8,1.1c-0.7,0.3-1.4,0.4-2.3,0.4c-1.1,0-2.1-0.2-2.9-0.6c-0.8-0.4-1.5-0.9-2.1-1.6c-0.5-0.7-1-1.4-1.2-2.3
			c-0.3-0.9-0.4-1.8-0.4-2.8c0-1,0.1-1.9,0.4-2.8c0.3-0.9,0.7-1.7,1.2-2.3c0.6-0.7,1.2-1.2,2.1-1.6c0.8-0.4,1.8-0.6,2.9-0.6
			c0.7,0,1.3,0.1,2,0.3c0.6,0.2,1.2,0.5,1.7,0.9c0.5,0.4,1,0.9,1.3,1.4c0.3,0.6,0.6,1.2,0.7,2h-1.3C163.4,50.3,163.2,49.9,163,49.4z
			"/>
		<path fill="#FFFFFF" d="M173.6,50.7c0.6,0.3,1.1,0.7,1.5,1.2c0.4,0.5,0.7,1.1,0.9,1.7c0.2,0.6,0.3,1.3,0.3,2.1
			c0,0.7-0.1,1.4-0.3,2.1c-0.2,0.6-0.5,1.2-0.9,1.7c-0.4,0.5-0.9,0.9-1.5,1.2c-0.6,0.3-1.3,0.4-2.1,0.4c-0.8,0-1.5-0.1-2.1-0.4
			c-0.6-0.3-1.1-0.7-1.5-1.2c-0.4-0.5-0.7-1.1-0.9-1.7c-0.2-0.7-0.3-1.3-0.3-2.1c0-0.7,0.1-1.4,0.3-2.1c0.2-0.7,0.5-1.2,0.9-1.7
			c0.4-0.5,0.9-0.9,1.5-1.2c0.6-0.3,1.3-0.4,2.1-0.4C172.4,50.2,173,50.4,173.6,50.7z M170,51.6c-0.4,0.2-0.8,0.6-1.1,1
			c-0.3,0.4-0.5,0.9-0.7,1.4c-0.2,0.5-0.2,1.1-0.2,1.6c0,0.5,0.1,1.1,0.2,1.6c0.2,0.5,0.4,1,0.7,1.4c0.3,0.4,0.7,0.7,1.1,1
			c0.5,0.2,1,0.4,1.6,0.4c0.6,0,1.1-0.1,1.6-0.4c0.4-0.2,0.8-0.6,1.1-1c0.3-0.4,0.5-0.9,0.7-1.4c0.2-0.5,0.2-1,0.2-1.6
			c0-0.5-0.1-1.1-0.2-1.6c-0.1-0.5-0.4-1-0.7-1.4c-0.3-0.4-0.7-0.7-1.1-1c-0.4-0.2-1-0.4-1.6-0.4C171,51.3,170.5,51.4,170,51.6z"/>
		<path fill="#FFFFFF" d="M179.8,50.5v1.7h0.1c0.3-0.6,0.8-1.1,1.3-1.5c0.5-0.4,1.2-0.5,2-0.5c0.7,0,1.3,0.2,1.8,0.5
			c0.5,0.3,0.9,0.8,1.1,1.5c0.3-0.7,0.7-1.2,1.3-1.5c0.6-0.3,1.2-0.5,1.9-0.5c2.2,0,3.4,1.2,3.4,3.6v6.9h-1.2v-6.8
			c0-0.8-0.2-1.5-0.5-1.9c-0.4-0.4-1-0.7-1.9-0.7c-0.5,0-1,0.1-1.3,0.3c-0.4,0.2-0.6,0.5-0.9,0.8c-0.2,0.3-0.4,0.7-0.4,1.2
			c-0.1,0.4-0.1,0.9-0.1,1.4v5.8H185v-6.9c0-0.3,0-0.7-0.1-1c-0.1-0.3-0.2-0.6-0.4-0.8c-0.2-0.2-0.4-0.4-0.7-0.5
			c-0.3-0.1-0.6-0.2-1-0.2c-0.5,0-1,0.1-1.4,0.3c-0.4,0.2-0.7,0.5-0.9,0.8c-0.2,0.3-0.4,0.7-0.5,1.2c-0.1,0.5-0.2,1-0.2,1.5v5.7
			h-1.2V50.5H179.8z"/>
		<path fill="#FFFFFF" d="M196.6,50.5v1.9h0c0.3-0.7,0.8-1.3,1.4-1.6c0.7-0.4,1.4-0.6,2.2-0.6c0.8,0,1.4,0.1,2,0.4
			c0.6,0.3,1.1,0.7,1.4,1.2c0.4,0.5,0.7,1.1,0.8,1.7c0.2,0.6,0.3,1.3,0.3,2.1c0,0.7-0.1,1.4-0.3,2.1c-0.2,0.7-0.5,1.2-0.8,1.7
			c-0.4,0.5-0.9,0.9-1.4,1.2c-0.6,0.3-1.2,0.4-2,0.4c-0.4,0-0.7,0-1.1-0.1c-0.4-0.1-0.7-0.2-1-0.4c-0.3-0.2-0.6-0.4-0.8-0.7
			c-0.2-0.3-0.4-0.6-0.6-1h0v5.7h-1.2V50.5H196.6z M203.4,54c-0.1-0.5-0.3-1-0.6-1.4c-0.3-0.4-0.6-0.7-1-1c-0.4-0.3-0.9-0.4-1.5-0.4
			c-0.7,0-1.3,0.1-1.7,0.4c-0.5,0.2-0.8,0.5-1.1,0.9c-0.3,0.4-0.5,0.9-0.6,1.4c-0.1,0.5-0.2,1.1-0.2,1.7c0,0.5,0.1,1,0.2,1.6
			c0.1,0.5,0.3,1,0.6,1.4c0.3,0.4,0.7,0.7,1.1,1c0.4,0.3,1,0.4,1.7,0.4c0.6,0,1.1-0.1,1.5-0.4c0.4-0.3,0.8-0.6,1-1
			c0.3-0.4,0.5-0.9,0.6-1.4c0.1-0.5,0.2-1,0.2-1.6C203.6,55.1,203.5,54.6,203.4,54z"/>
		<path fill="#FFFFFF" d="M207.4,52.1c0.2-0.4,0.5-0.8,0.9-1.1c0.4-0.3,0.8-0.5,1.3-0.6c0.5-0.1,1-0.2,1.6-0.2c0.4,0,0.9,0,1.3,0.1
			c0.4,0.1,0.8,0.3,1.2,0.5c0.4,0.2,0.6,0.6,0.9,1c0.2,0.4,0.3,1,0.3,1.7v5.4c0,0.5,0.2,0.8,0.7,0.8c0.1,0,0.3,0,0.4-0.1v1
			c-0.1,0-0.3,0-0.4,0.1c-0.1,0-0.3,0-0.4,0c-0.3,0-0.6,0-0.8-0.1c-0.2-0.1-0.3-0.2-0.4-0.4c-0.1-0.2-0.2-0.3-0.2-0.6
			c0-0.2,0-0.5,0-0.7h0c-0.2,0.3-0.5,0.6-0.7,0.9c-0.2,0.3-0.5,0.5-0.8,0.6c-0.3,0.2-0.6,0.3-1,0.4c-0.4,0.1-0.8,0.1-1.3,0.1
			c-0.5,0-0.9-0.1-1.3-0.2c-0.4-0.1-0.8-0.3-1.1-0.5c-0.3-0.2-0.6-0.5-0.7-0.9c-0.2-0.4-0.3-0.8-0.3-1.3c0-0.7,0.2-1.3,0.5-1.7
			c0.3-0.4,0.7-0.7,1.3-0.9c0.5-0.2,1.1-0.4,1.7-0.4c0.7-0.1,1.3-0.2,2-0.2c0.3,0,0.5-0.1,0.7-0.1c0.2,0,0.4-0.1,0.5-0.2
			c0.1-0.1,0.2-0.2,0.3-0.4c0.1-0.2,0.1-0.4,0.1-0.7c0-0.4-0.1-0.8-0.2-1c-0.1-0.3-0.3-0.5-0.6-0.6c-0.2-0.2-0.5-0.3-0.8-0.3
			c-0.3-0.1-0.7-0.1-1-0.1c-0.8,0-1.4,0.2-1.9,0.6c-0.5,0.4-0.8,1-0.8,1.8H207C207.1,53.1,207.2,52.5,207.4,52.1z M213.6,55.1
			c-0.1,0.1-0.2,0.3-0.5,0.3c-0.2,0.1-0.4,0.1-0.6,0.1c-0.5,0.1-1.1,0.2-1.6,0.2c-0.6,0.1-1.1,0.2-1.5,0.3c-0.5,0.1-0.8,0.4-1.1,0.6
			c-0.3,0.3-0.4,0.7-0.4,1.2c0,0.3,0.1,0.6,0.2,0.8c0.1,0.2,0.3,0.5,0.5,0.6c0.2,0.2,0.5,0.3,0.7,0.4c0.3,0.1,0.6,0.1,0.8,0.1
			c0.5,0,0.9-0.1,1.4-0.2c0.4-0.1,0.8-0.4,1.1-0.6c0.3-0.3,0.6-0.6,0.8-1c0.2-0.4,0.3-0.8,0.3-1.3L213.6,55.1L213.6,55.1z"/>
		<path fill="#FFFFFF" d="M219,50.5v1.8h0c0.2-0.6,0.7-1.1,1.3-1.5c0.6-0.4,1.3-0.6,2-0.6c0.7,0,1.3,0.1,1.8,0.3
			c0.5,0.2,0.9,0.4,1.2,0.8c0.3,0.3,0.5,0.7,0.6,1.2c0.1,0.5,0.2,1,0.2,1.6v6.5h-1.2v-6.3c0-0.4,0-0.8-0.1-1.2
			c-0.1-0.4-0.2-0.7-0.4-1c-0.2-0.3-0.5-0.5-0.8-0.7c-0.3-0.2-0.8-0.2-1.3-0.2c-0.5,0-0.9,0.1-1.3,0.3c-0.4,0.2-0.7,0.4-1,0.7
			c-0.3,0.3-0.5,0.7-0.6,1.1c-0.1,0.4-0.2,0.9-0.2,1.4v5.9h-1.2V50.5H219z"/>
		<path fill="#FFFFFF" d="M228.9,50.5l3.4,8.7l3.1-8.7h1.2l-4.4,11.7c-0.2,0.4-0.4,0.8-0.5,1.1c-0.2,0.3-0.3,0.5-0.5,0.7
			c-0.2,0.2-0.4,0.3-0.7,0.4c-0.3,0.1-0.6,0.1-1,0.1c-0.3,0-0.4,0-0.6,0c-0.1,0-0.3,0-0.4-0.1v-1c0.1,0,0.3,0.1,0.4,0.1
			c0.1,0,0.3,0,0.4,0c0.3,0,0.5,0,0.7-0.1c0.2-0.1,0.3-0.2,0.5-0.3c0.1-0.1,0.2-0.3,0.3-0.5c0.1-0.2,0.2-0.4,0.3-0.7l0.4-1.1
			l-4.1-10.1H228.9z"/>
	</g>
	<path fill="#FFFFFF" d="M209.8,19c0-6.4,2.6-9.6,7.9-9.6c5.3,0,7.9,3.2,7.9,9.6c0,6.2-2.6,9.3-7.9,9.3
		C212.4,28.3,209.8,25.2,209.8,19 M217.6,5.2c-4.8,0-9,1.1-12.6,3.2c-4.3,2.5-6.5,6-6.5,10.6c0,4.4,2.2,7.9,6.6,10.4
		c3.6,2,7.8,3,12.5,3c4.8,0,9-1,12.5-3.1c4.4-2.6,6.6-6,6.6-10.3c0-4.5-2.2-8-6.5-10.6C226.6,6.3,222.4,5.2,217.6,5.2 M195.8,20.7
		h-8.1v4.3c0,1.9-1.3,2.8-3.8,2.8c-2,0-3-0.9-3-2.6V10.3h13.8V6.8h-13.8V0h-5.5c-0.5,2.5-1.3,4.2-2.3,5.2c-1.3,1.2-3.4,1.9-6.3,1.9
		v3.3h3.6V23c0,6,4.5,9,13.4,9c3,0,5.5-0.4,7.6-1.2c3-1,4.4-2.8,4.4-5.4V20.7z M163.4,6c-1.2-0.2-2.6-0.3-4.3-0.3
		c-5.7,0-10,1.8-13,5.3h-0.1V5.8L129.8,7v3.4h3.2c1.7,0,2.5,0.9,2.5,2.6v12.2c0,1.8-0.8,2.6-2.5,2.6h-3.3v3.4H152v-3.4h-3.5
		c-1.6,0-2.5-0.9-2.5-2.6v-3.5c0-3.1,0.4-5.3,1.1-6.8c1.1-2,3-3,5.8-3c1.7,0,2.5,0.6,2.5,1.9v3.6h7.9V6z M127.7,18.8
		c0-4.4-2.2-8-6.5-10.5c-3.6-2-7.7-3-12.5-3c-4.7,0-8.9,1.1-12.6,3.2c-4.3,2.5-6.5,6-6.5,10.6c0,4.3,2.3,7.8,6.8,10.4
		c3.6,2,7.8,3,12.6,3c3.9,0,7.4-0.6,10.4-1.7c3.8-1.4,6.5-3.6,8.1-6.6h-10.7c-0.6,1.4-1.6,2.4-3.2,3.2c-1.4,0.6-2.9,0.9-4.6,0.9
		c-5,0-7.7-2.7-8.1-8h26.8V18.8z M101,16.9c0.4-5,3-7.5,7.8-7.5c4.8,0,7.4,2.5,7.8,7.5H101z M66.4,27.9c-5.7,0-8.5-3-8.5-8.9
		c0-2.8,0.8-5,2.3-6.6c1.5-1.7,3.6-2.5,6.3-2.5c2.7,0,4.7,0.9,6.1,2.6c1.3,1.6,2,3.8,2,6.5c0,2.7-0.7,4.8-2,6.4
		C71.1,27.1,69.1,27.9,66.4,27.9 M71.3,5.5c-5.8,0-10.2,1.6-13.2,4.8h-0.2V5.7c-3.5,0.2-6.6,0.4-9.3,0.5c-2.7,0.1-5,0.3-6.8,0.4v3.6
		H45c1.6,0,2.4,0.7,2.4,2.2v21.9c0,1.8-0.8,2.6-2.4,2.6h-3.2v3.5h21.9V37h-3.3c-1.7,0-2.5-0.9-2.5-2.6v-6.2h0.3
		c1.1,1.2,3,2.3,5.4,3.1c1.1,0.3,2.2,0.6,3.2,0.8c1,0.2,2.1,0.3,3.1,0.3c4.7,0,8.5-1.1,11.3-3.3c3-2.5,4.5-6,4.5-10.6
		c0-4.2-1.4-7.5-4.1-9.7C79.1,6.6,75.7,5.5,71.3,5.5 M25.6,22c0,1.8-1.2,3.3-3.5,4.7c-2,1.1-4,1.7-6,1.7c-3.8,0-5.7-1.2-5.7-3.6
		c0-1.9,1.4-3.2,4.1-3.9c1.3-0.3,3.5-0.4,6.4-0.4h4.7V22z M38.6,27.8c-1.7,0-2.5-0.9-2.5-2.6V13.9c0-3.5-2.2-5.9-6.6-7.1
		C27,6.1,23.4,5.8,18.7,5.8C7.2,5.8,1.4,8.5,1.4,13.9h10.5c0-3,2.3-4.4,6.8-4.4c4.6,0,7,1.7,7,5.1V17h-10C5.3,17,0.1,19.6,0,24.8
		c-0.1,5.1,4,7.7,12.1,7.7c2.6,0,5.1-0.3,7.4-0.9c3.2-0.9,5.2-2.2,6-3.9h0.2v3.6h15v-3.5H38.6z"/>
</g>
<g>
</g>
<g>
</g>
<g>
</g>
<g>
</g>
<g>
</g>
<g>
</g>
</svg>
